<svg width="16" height="22" viewBox="0 0 16 22" fill="none" xmlns="http://www.w3.org/2000/svg">
<path d="M8.82673 5L9.00528 6.5H13.5254L13.1504 9.5H7.83936L7.49052 6.5H7.49469L7.31614 5L7.31403 4.98177L6.89023 1.33747L6.79283 0.5H0.875V2H5.45717L5.80602 5H1.52544L3.42388 20.186C3.46971 20.5486 3.64611 20.882 3.92004 21.1239C4.19398 21.3657 4.54668 21.4994 4.91211 21.5H11.8379C12.2034 21.4995 12.5561 21.3658 12.8301 21.1239C13.104 20.8821 13.2805 20.5486 13.3263 20.186L15.2246 5H8.82673ZM3.22456 6.5H5.98044L6.32928 9.5H3.59956L3.22456 6.5ZM11.8385 20H4.91206L3.78706 11H6.5037L7.15775 16.625H8.66783L8.01373 11H12.9631L11.8385 20Z" fill="#323232" fill-opacity="0.8"/>
</svg>
