<svg width="20" height="19" viewBox="0 0 20 19" fill="none" xmlns="http://www.w3.org/2000/svg">
<path fill-rule="evenodd" clip-rule="evenodd" d="M1 0C0.447715 0 0 0.447715 0 1C0 1.55228 0.447715 2 1 2H2.14208L4.00921 14.1364C4.02227 14.2321 4.04887 14.3235 4.08702 14.4086C4.20884 14.6804 4.44844 14.8879 4.74086 14.9661C4.8289 14.9898 4.92117 15.0016 5.01554 15L13.8377 15C15.5594 15 17.088 13.8983 17.6324 12.2649L19.9487 5.31623C20.0503 5.01128 19.9992 4.67606 19.8112 4.41529C19.6233 4.15452 19.3214 4 19 4H4.4733L3.98837 0.847943C3.91332 0.360111 3.49357 0 3 0H1ZM4.781 6L5.85792 13L13.8377 13C14.6986 13 15.4629 12.4491 15.7351 11.6325L17.6126 6H4.781Z" fill="black"/>
<path d="M5.5 19C6.32843 19 7 18.3284 7 17.5C7 16.6716 6.32843 16 5.5 16C4.67157 16 4 16.6716 4 17.5C4 18.3284 4.67157 19 5.5 19Z" fill="black"/>
<path d="M18 17.5C18 18.3284 17.3284 19 16.5 19C15.6716 19 15 18.3284 15 17.5C15 16.6716 15.6716 16 16.5 16C17.3284 16 18 16.6716 18 17.5Z" fill="black"/>
</svg>
