<svg width="14" height="18" viewBox="0 0 14 18" fill="none" xmlns="http://www.w3.org/2000/svg">
<path d="M13.25 0.25C13.4312 0.250008 13.6063 0.315643 13.7429 0.434767C13.8795 0.553891 13.9684 0.718446 13.993 0.898L14 1V17C13.9999 17.19 13.9278 17.3729 13.798 17.5118C13.6683 17.6506 13.4907 17.7351 13.3011 17.748C13.1115 17.761 12.9241 17.7015 12.7767 17.5816C12.6293 17.4617 12.5329 17.2902 12.507 17.102L12.5 17V12H10.25C10.0688 12 9.89366 11.9344 9.75707 11.8152C9.62048 11.6961 9.53165 11.5316 9.507 11.352L9.5 11.25V4C9.5 3.00544 9.89509 2.05161 10.5983 1.34835C11.3016 0.645088 12.2554 0.25 13.25 0.25ZM7.25 0.25C7.43124 0.250008 7.60634 0.315643 7.74293 0.434767C7.87952 0.553891 7.96835 0.718446 7.993 0.898L8 1V5C8 6.953 6.6 8.578 4.75 8.93V17C4.74994 17.19 4.67776 17.3729 4.54803 17.5118C4.4183 17.6506 4.2407 17.7351 4.05112 17.748C3.86154 17.761 3.67411 17.7015 3.5267 17.5816C3.37929 17.4617 3.2829 17.2902 3.257 17.102L3.25 17V8.93C2.37077 8.7619 1.57328 8.30387 0.985023 7.62914C0.396765 6.95441 0.0517037 6.10194 0.00500011 5.208L0 5V1C5.82426e-05 0.809977 0.0722443 0.627059 0.201972 0.488208C0.331701 0.349358 0.509299 0.264926 0.69888 0.251974C0.888462 0.239022 1.07589 0.298515 1.2233 0.418432C1.37071 0.53835 1.4671 0.70975 1.493 0.898L1.5 1V5C1.5 6.12 2.236 7.067 3.25 7.386V1C3.25006 0.809977 3.32224 0.627059 3.45197 0.488208C3.5817 0.349358 3.7593 0.264926 3.94888 0.251974C4.13846 0.239022 4.32589 0.298515 4.4733 0.418432C4.62071 0.53835 4.7171 0.70975 4.743 0.898L4.75 1V7.385C5.2272 7.23461 5.64834 6.9446 5.95905 6.55243C6.26975 6.16026 6.45575 5.68395 6.493 5.185L6.5 5V1C6.5 0.801088 6.57902 0.610322 6.71967 0.46967C6.86032 0.329018 7.05109 0.25 7.25 0.25ZM12.5 10.5V1.878C12.0889 2.02349 11.7289 2.2852 11.4637 2.63135C11.1985 2.97751 11.0395 3.39322 11.006 3.828L11 4V10.5H12.5V1.878V10.5Z" fill="#323232" fill-opacity="0.8"/>
</svg>
