<svg width="20" height="19" viewBox="0 0 20 19" fill="none" xmlns="http://www.w3.org/2000/svg">
<path fill-rule="evenodd" clip-rule="evenodd" d="M8.79288 3.40724C7.2504 1.80398 4.74956 1.80398 3.20709 3.40724C1.66461 5.0105 1.66461 7.60989 3.20709 9.21315L9.99998 16.2737L16.7929 9.21315C18.3353 7.60989 18.3353 5.0105 16.7929 3.40724C15.2504 1.80398 12.7496 1.80398 11.2071 3.40724L10.7071 3.92694C10.3166 4.33286 9.6834 4.33286 9.29287 3.92694L8.79288 3.40724ZM9.99998 1.73196C7.66485 -0.475735 4.04857 -0.407295 1.79287 1.93729C-0.530648 4.35238 -0.530649 8.26801 1.79287 10.6831L9.29287 18.4787C9.6834 18.8846 10.3166 18.8846 10.7071 18.4787L18.2071 10.6831C20.5306 8.26801 20.5306 4.35238 18.2071 1.93729C15.9514 -0.407295 12.3351 -0.475735 9.99998 1.73196Z" fill="white"/>
</svg>
