<svg width="20" height="19" viewBox="0 0 20 19" fill="none" xmlns="http://www.w3.org/2000/svg">
<path fill-rule="evenodd" clip-rule="evenodd" d="M3.98079 0C3.62079 0 3.28838 0.192286 3.10977 0.503861L0.325046 5.36158C-0.524041 6.84274 0.382826 8.65442 1.97432 8.95639V18C1.97432 18.5523 2.42347 19 2.97752 19H7.99352C8.54757 19 8.99672 18.5523 8.99672 18V13H11.0031V18C11.0031 18.5523 11.4523 19 12.0063 19H17.0223C17.5764 19 18.0255 18.5523 18.0255 18V8.95642C19.6171 8.65453 20.5241 6.84279 19.675 5.36158L16.8902 0.503861C16.7116 0.192286 16.3792 0 16.0192 0H3.98079ZM16.0191 8.73491C15.6524 8.58377 15.3129 8.37117 15.016 8.10542C14.3801 8.67468 13.5484 9 12.6735 9H12.3425C11.4676 9 10.6359 8.67468 10 8.10541C9.36406 8.67468 8.53237 9 7.65748 9H7.32652C6.45162 9 5.61993 8.67468 4.984 8.10542C4.68707 8.37121 4.34747 8.58383 3.98072 8.73498V17H6.99032V12C6.99032 11.4477 7.43947 11 7.99352 11H12.0063C12.5604 11 13.0095 11.4477 13.0095 12V17H16.0191V8.73491ZM2.06709 6.35386L4.56297 2H15.437L17.9329 6.35386C18.098 6.64177 17.8894 7 17.5567 7H17.3585C16.8572 7 16.3891 6.75026 16.111 6.33447C15.5901 5.5556 14.4419 5.5556 13.921 6.33447C13.6429 6.75026 13.1748 7 12.6735 7H12.3425C11.8412 7 11.3731 6.75026 11.095 6.33447C10.5741 5.5556 9.42591 5.5556 8.905 6.33447C8.62693 6.75026 8.15879 7 7.65748 7H7.32652C6.82521 7 6.35707 6.75026 6.07899 6.33447C5.55808 5.5556 4.40991 5.5556 3.889 6.33447C3.61093 6.75026 3.14278 7 2.64147 7H2.44326C2.1106 7 1.90204 6.64177 2.06709 6.35386Z" fill="white"/>
</svg>
