<svg width="20" height="18" viewBox="0 0 20 18" fill="none" xmlns="http://www.w3.org/2000/svg">
<path fill-rule="evenodd" clip-rule="evenodd" d="M14 2C14 0.895432 13.1046 0 12 0H2C0.895432 0 0 0.89543 0 2V13C0 14.1046 0.89543 15 2 15H2.03544C2.27806 16.6961 3.73676 18 5.5 18C7.26324 18 8.72194 16.6961 8.96456 15H10.0354C10.2781 16.6961 11.7368 18 13.5 18C15.2632 18 16.7219 16.6961 16.9646 15H19C19.5523 15 20 14.5523 20 14V9C20 8.78363 19.9298 8.5731 19.8 8.4L16.8 4.4C16.6111 4.14819 16.3148 4 16 4H14V2ZM14 6L14 11.0354C15.1798 11.2042 16.1698 11.9613 16.6632 13H18V9.33333L15.5 6H14ZM10.3368 13C10.6826 12.2722 11.2722 11.6826 12 11.3368L12 2L2 2L2 13H2.33682C2.89855 11.8175 4.1038 11 5.5 11C6.8962 11 8.10145 11.8175 8.66318 13H10.3368ZM7 14.5C7 15.3284 6.32843 16 5.5 16C4.67157 16 4 15.3284 4 14.5C4 13.6716 4.67157 13 5.5 13C6.32843 13 7 13.6716 7 14.5ZM13.5 16C14.3284 16 15 15.3284 15 14.5C15 13.6716 14.3284 13 13.5 13C12.6716 13 12 13.6716 12 14.5C12 15.3284 12.6716 16 13.5 16Z" fill="#00C57E"/>
</svg>
